<svg id="Livello_1" data-name="Livello 1" xmlns="http://www.w3.org/2000/svg" viewBox="0 0 80 50" width="16px" height="16px"><defs><style>.cls-1{fill:#12304A;}</style></defs><title>fav-icon</title><path class="cls-1" d="M14.73,28.15a3.92,3.92,0,0,0,1.52,1.22h1.6l1.26-.83h0a2.86,2.86,0,0,0,.11-3.45,3.1,3.1,0,0,1-.6-1.11,1.23,1.23,0,0,1-.45-1.15h0a0.53,0.53,0,0,1,0-.13,5.11,5.11,0,0,1,0-4.34h0A7.27,7.27,0,0,1,21,14.1a5,5,0,0,1,3.18-1.45,4.77,4.77,0,0,1,3.51,0,3.76,3.76,0,0,1,2.4,1h0L30.77,14h0a1.66,1.66,0,0,1,.93.85h0a2.34,2.34,0,0,1,.34.32q3.08,4.34,6.16,8.69c1.87,2.64,3.69,5.32,5.6,7.93a2.63,2.63,0,0,0,3.77.65,2.69,2.69,0,0,0,.52-3.94c-0.77-1-1.45-2.1-2.2-3.14-2.86-4-5.6-8-8.44-12C35.56,10.74,35,8,36.26,4.89A7.59,7.59,0,0,1,42.62.08a7.64,7.64,0,0,1,7.51,3.15c2,2.74,3.93,5.6,5.89,8.4L66.44,26.49c3,4.22,5.9,8.46,8.9,12.66,1.52,2.12,2.85,4.27,2.5,7a7.87,7.87,0,0,1-4.76,6.57,7.2,7.2,0,0,1-6.56,0h0l-0.92-.49a1.7,1.7,0,0,1-1.12-.8h0a5,5,0,0,1-.48-0.4,35.39,35.39,0,0,1-2.84-3.87q-3.37-4.76-6.69-9.56A2.83,2.83,0,0,0,50.56,37,2.76,2.76,0,0,0,50,40.73a8.84,8.84,0,0,1,1.29,3c0.82,3.63-1.42,7.89-4.76,9a1.72,1.72,0,0,1-1.45.47,4.56,4.56,0,0,1-3.37,0H41.63l-0.06,0a1.85,1.85,0,0,1-1.46-.46h0a7.23,7.23,0,0,1-3.47-2.87,9.4,9.4,0,0,1-1.76-2.56h0l-0.45-.66h0a2.56,2.56,0,0,1-1-1.39h0c-0.78-1.09-1.58-2.17-2.35-3.26-1.91-2.7-3.79-5.41-5.71-8.09a2.49,2.49,0,0,0-3-.88c-1.33.47-1.87,1.4-1.83,3.13a11.39,11.39,0,0,1,1,1.75,2.6,2.6,0,0,1,.93,1.3h0c0.34,0.47.67,1,1,1.42a8,8,0,0,1-3.37,12.1,1.73,1.73,0,0,1-1.45.47,4.5,4.5,0,0,1-3.38,0H15.21l-0.06,0a1.69,1.69,0,0,1-1.46-.47h0a7.32,7.32,0,0,1-3.56-2.88Q5.85,43.84,1.63,37.74a7.73,7.73,0,0,1-.47-8.81A8.09,8.09,0,0,1,14.73,28.15Z"/></svg>